<?xml version="1.0" encoding="utf-8"?>
<svg viewBox="0 0 48 48" width="48px" height="48px" fill="darkorange" xmlns="http://www.w3.org/2000/svg">
  <path class="pressed" d="M 24 45 C 7.857 45 -2.232 27.498 5.841 13.502 C 9.585 7.002 16.509 3 24 3 C 40.144 3 50.229 20.499 42.16 34.502 C 38.415 40.998 31.492 45 24 45 M 24 48 C 42.447 48 53.977 27.999 44.754 12 C 40.473 4.575 32.562 0 24 0 C 5.55 0 -5.979 19.998 3.248 36 C 7.529 43.425 15.439 48 24 48"/>
  <path class="pressed" d="M 32.898 14.91 L 32.836 14.976 L 22.434 28.251 L 16.165 21.969 C 14.901 20.787 12.831 21.422 12.443 23.109 C 12.275 23.838 12.48 24.6 12.989 25.149 L 20.914 33.09 C 21.814 33.99 23.281 33.963 24.147 33.03 L 36.105 18.062 C 37.297 16.806 36.69 14.727 35.007 14.319 C 34.248 14.136 33.451 14.358 32.898 14.91"/>
</svg>
