<svg xmlns="http://www.w3.org/2000/svg" viewBox="0 0 32 32" x="0px" y="0px"><g data-name="Face Recognition"><path d="M4,9.646V8A4,4,0,0,1,8,4H9.646a1,1,0,0,1,0,2H8A2,2,0,0,0,6,8V9.646a1,1,0,0,1-2,0ZM24,4H22.354a1,1,0,0,0,0,2H24a2,2,0,0,1,2,2V9.646a1,1,0,0,0,2,0V8A4,4,0,0,0,24,4ZM9.646,26H8a2,2,0,0,1-2-2V22.354a1,1,0,0,0-2,0V24a4,4,0,0,0,4,4H9.646a1,1,0,0,0,0-2ZM27,21.354a1,1,0,0,0-1,1V24a2,2,0,0,1-2,2H22.354a1,1,0,0,0,0,2H24a4,4,0,0,0,4-4V22.354A1,1,0,0,0,27,21.354Zm-8.588-3.495a4.689,4.689,0,0,1-4.824,0,3.59,3.59,0,0,0-3.378,3.817,1,1,0,0,1-2,0,5.6,5.6,0,0,1,3.679-5.462,4.8,4.8,0,0,1-.733-2.53v-.961a4.844,4.844,0,1,1,9.688,0v.961a4.8,4.8,0,0,1-.733,2.53,5.6,5.6,0,0,1,3.679,5.462,1,1,0,0,1-2,0A3.59,3.59,0,0,0,18.412,17.859ZM16,16.527a2.847,2.847,0,0,0,2.844-2.843v-.961a2.844,2.844,0,1,0-5.688,0v.961A2.847,2.847,0,0,0,16,16.527Z" fill="#ffffff"/></g></svg>