<svg xmlns="http://www.w3.org/2000/svg" version="1.1" 
viewBox="-5.0 -10.0 110.0 110.0">

 <path d="m9.375 25v50c0 1.7266-1.3984 3.125-3.125 3.125s-3.125-1.3984-3.125-3.125v-50c0-1.7266 1.3984-3.125 3.125-3.125s3.125 1.3984 3.125 3.125zm87.172 20.387c-0.77344-1.543-2.6523-2.168-4.1953-1.3984l-4.0508 2.0234v-5.6562c0-1.7266-1.3984-3.125-3.125-3.125-1.7227 0-3.125 1.3984-3.125 3.125v5.6562l-4.0469-2.0234h0.003906c-1.5469-0.76953-3.4219-0.14453-4.1953 1.3984s-0.14453 3.4219 1.3984 4.1953l5.2227 2.6133-4.1797 5.5742h-0.003906c-0.5 0.66016-0.71875 1.4961-0.60156 2.3203 0.11719 0.82031 0.55469 1.5625 1.2188 2.0625 0.66406 0.5 1.5 0.71094 2.3242 0.59375 0.82031-0.11719 1.5625-0.5625 2.0586-1.2266l3.9297-5.2383 3.9297 5.2383c1.0352 1.3789 2.9922 1.6602 4.375 0.625 0.66016-0.5 1.1016-1.2383 1.2148-2.0586 0.11719-0.82031-0.09375-1.6562-0.59375-2.3164l-4.1836-5.5781 5.2266-2.6094c0.74219-0.37109 1.3047-1.0234 1.5664-1.8086 0.26172-0.78516 0.20312-1.6445-0.16797-2.3867zm-33.121-1.3984-4.0508 2.0273v-5.6602c0-1.7266-1.3984-3.125-3.125-3.125s-3.125 1.3984-3.125 3.125v5.6562l-4.0508-2.0234c-1.543-0.76953-3.4219-0.14453-4.1914 1.3984-0.77344 1.543-0.14844 3.4219 1.3984 4.1953l5.2227 2.6133-4.1836 5.5781v-0.003907c-1.0352 1.3789-0.75781 3.3359 0.625 4.375 1.3789 1.0352 3.3398 0.75391 4.375-0.625l3.9297-5.2422 3.9297 5.2422c1.0352 1.3789 2.9961 1.6602 4.375 0.625 0.66406-0.5 1.1016-1.2383 1.2188-2.0586 0.11719-0.82031-0.097657-1.6562-0.59375-2.3164l-4.1836-5.5781 5.2266-2.6094h-0.003906c1.5469-0.77344 2.1719-2.6523 1.3984-4.1953-0.76953-1.543-2.6484-2.168-4.1914-1.3984zm-28.93 0-4.0469 2.0234v-5.6562c0-1.7266-1.4023-3.125-3.125-3.125-1.7266 0-3.125 1.3984-3.125 3.125v5.6562l-4.0508-2.0234c-1.543-0.76562-3.418-0.14062-4.1875 1.4023-0.76953 1.543-0.14844 3.4141 1.3906 4.1914l5.2227 2.6133-4.1797 5.5742c-0.50391 0.66016-0.71875 1.4961-0.60547 2.3203 0.11719 0.82031 0.55469 1.5625 1.2188 2.0625 0.66797 0.5 1.5039 0.71094 2.3242 0.59375 0.82422-0.11719 1.5625-0.5625 2.0586-1.2266l3.9297-5.2383 3.9297 5.2383c1.0352 1.3789 2.9961 1.6602 4.375 0.625 0.66406-0.5 1.1016-1.2383 1.2188-2.0586 0.11719-0.82031-0.097656-1.6562-0.59375-2.3164l-4.1797-5.5781 5.2227-2.6094h-0.003907c1.543-0.77344 2.1719-2.6523 1.3984-4.1953s-2.6484-2.168-4.1953-1.3984z" fill="#ffffff"/>
</svg>