<?xml version="1.0" encoding="utf-8"?>
<svg viewBox="0 0 48 48" width="48px" height="48px" xmlns="http://www.w3.org/2000/svg" xmlns:bx="https://boxy-svg.com">
  <defs>
    <linearGradient id="color-0" gradientUnits="userSpaceOnUse" gradientTransform="matrix(2.999367, 0, 0, 2.999568, -96.380333, -54.532982)" bx:pinned="true">
      <stop style="stop-color: rgb(0, 100, 0);"/>
    </linearGradient>
  </defs>
  <path d="M 24 45 C 7.857 45 -2.232 27.498 5.841 13.502 C 9.585 7.002 16.509 3 24 3 C 40.144 3 50.229 20.499 42.16 34.502 C 38.415 40.998 31.492 45 24 45 M 24 48 C 42.447 48 53.977 27.999 44.754 12 C 40.473 4.575 32.562 0 24 0 C 5.55 0 -5.979 19.998 3.248 36 C 7.529 43.425 15.439 48 24 48" style="fill: url('#color-0');"/>
  <path d="M 24.001 12 C 24.831 12 25.503 12.672 25.503 13.499 L 25.503 22.499 L 34.501 22.499 C 35.654 22.499 36.374 23.751 35.798 24.748 C 35.533 25.212 35.036 25.498 34.501 25.498 L 25.503 25.498 L 25.503 34.498 C 25.503 35.652 24.253 36.376 23.252 35.796 C 22.789 35.528 22.503 35.034 22.503 34.498 L 22.503 25.498 L 13.506 25.498 C 12.347 25.498 11.626 24.25 12.203 23.249 C 12.474 22.787 12.967 22.499 13.506 22.499 L 22.503 22.499 L 22.503 13.499 C 22.503 12.672 23.175 12 24.001 12" style="fill: url('#color-0'); transform-origin: 0.001px -0.522px;"/>
</svg>