<svg width="48" height="48" viewBox="0 0 48 48" fill="none" xmlns="http://www.w3.org/2000/svg">
<g clip-path="url(#clip0_1_5)">
<path d="M24.0002 45C7.85722 45 -2.23178 27.498 5.84122 13.502C9.58522 7.002 16.5092 3 24.0002 3C40.1442 3 50.2292 20.499 42.1602 34.502C38.4152 40.998 31.4922 45 24.0002 45ZM24.0002 48C42.4472 48 53.9772 27.999 44.7542 12C40.4732 4.575 32.5622 0 24.0002 0C5.55022 0 -5.97878 19.998 3.24822 36C7.52922 43.425 15.4392 48 24.0002 48Z" fill="url(#paint0_linear_1_5)"/>
<path d="M29.231 17.615L23.616 12M23.616 12L18 17.615M23.616 12V23.9335V35.867" stroke="url(#paint1_linear_1_5)" stroke-width="3" stroke-linecap="round" stroke-linejoin="round"/>
</g>
<defs>
<linearGradient id="paint0_linear_1_5" x1="0.000218459" y1="0" x2="1.00022" y2="0" gradientUnits="userSpaceOnUse">
<stop stop-color="#006400"/>
</linearGradient>
<linearGradient id="paint1_linear_1_5" x1="5.184" y1="1.961" x2="6.184" y2="1.961" gradientUnits="userSpaceOnUse">
<stop stop-color="#006400"/>
</linearGradient>
<clipPath id="clip0_1_5">
<rect width="48" height="48" fill="white"/>
</clipPath>
</defs>
</svg>
